<svg width="290" height="14" viewBox="0 0 290 14" fill="none" xmlns="http://www.w3.org/2000/svg">
<path d="M0.4 8.48H2.88C2.976 8.8 3.13067 9.08267 3.344 9.328C3.81333 9.88267 4.512 10.16 5.44 10.16C6.82667 10.16 7.52 9.73333 7.52 8.88C7.52 8.66667 7.44533 8.47467 7.296 8.304C7.15733 8.13333 6.93333 7.984 6.624 7.856C6.32533 7.728 6.032 7.62667 5.744 7.552C5.46667 7.46667 5.104 7.36533 4.656 7.248C4.592 7.23733 4.53867 7.22667 4.496 7.216C4.464 7.20533 4.416 7.19467 4.352 7.184C4.29867 7.16267 4.25067 7.14667 4.208 7.136C1.98933 6.60267 0.88 5.53067 0.88 3.92C0.88 2.96 1.26933 2.14933 2.048 1.488C2.83733 0.816 3.888 0.48 5.2 0.48C6.90667 0.48 8.19733 1.056 9.072 2.208C9.43467 2.72 9.69067 3.29067 9.84 3.92H7.36C7.296 3.696 7.17333 3.48267 6.992 3.28C6.58667 2.85333 5.98933 2.64 5.2 2.64C4.592 2.64 4.13333 2.75733 3.824 2.992C3.51467 3.216 3.36 3.49867 3.36 3.84C3.36 4.45867 4.064 4.928 5.472 5.248C5.83467 5.33333 6.05867 5.38667 6.144 5.408C6.24 5.42933 6.45867 5.488 6.8 5.584C7.152 5.68 7.38667 5.76 7.504 5.824C7.632 5.87733 7.84 5.968 8.128 6.096C8.42667 6.21333 8.63467 6.32533 8.752 6.432C8.88 6.53867 9.04 6.68267 9.232 6.864C9.43467 7.03467 9.57867 7.21067 9.664 7.392C9.74933 7.57333 9.824 7.78667 9.888 8.032C9.96267 8.26667 10 8.52267 10 8.8C10 9.792 9.6 10.6293 8.8 11.312C8 11.984 6.88 12.32 5.44 12.32C3.54133 12.32 2.14933 11.68 1.264 10.4C0.848 9.84533 0.56 9.20533 0.4 8.48ZM11.5225 7.6V0.799999H13.9225V7.6C13.9225 8.368 14.1358 8.976 14.5625 9.424C14.9998 9.86133 15.5865 10.08 16.3225 10.08C17.0585 10.08 17.6398 9.86133 18.0665 9.424C18.5038 8.976 18.7225 8.368 18.7225 7.6V0.799999H21.1225V7.6C21.1225 9.04 20.6905 10.1867 19.8265 11.04C18.9625 11.8933 17.7945 12.32 16.3225 12.32C14.8505 12.32 13.6825 11.8933 12.8185 11.04C11.9545 10.1867 11.5225 9.04 11.5225 7.6ZM23.1181 12V0.799999H26.7181L29.4381 7.2H29.8381L32.5581 0.799999H36.1581V12H33.7581V4.88L33.9181 3.44H33.7581L31.1981 9.44H28.0781L25.5181 3.44H25.3581L25.5181 4.88V12H23.1181ZM38.165 12V0.799999H41.765L44.485 7.2H44.885L47.605 0.799999H51.205V12H48.805V4.88L48.965 3.44H48.805L46.245 9.44H43.125L40.565 3.44H40.405L40.565 4.88V12H38.165ZM53.2119 12V0.799999H61.6119V3.04H55.6119V5.28H60.4119V7.36H55.6119V9.76H61.6119V12H53.2119ZM63.29 12V0.799999H68.57C69.9033 0.799999 70.97 1.16267 71.77 1.888C72.57 2.60267 72.97 3.49333 72.97 4.56C72.97 5.392 72.7353 6.10133 72.266 6.688C71.7967 7.27467 71.178 7.712 70.41 8L72.97 12H70.25L67.93 8.32H65.69V12H63.29ZM65.69 6.08H68.49C69.1513 6.08 69.6473 5.94667 69.978 5.68C70.3193 5.40267 70.49 5.02933 70.49 4.56C70.49 4.09067 70.3193 3.72267 69.978 3.456C69.6473 3.17867 69.1513 3.04 68.49 3.04H65.69V6.08ZM78.4156 8.48H80.8956C80.9916 8.8 81.1463 9.08267 81.3596 9.328C81.829 9.88267 82.5276 10.16 83.4556 10.16C84.8423 10.16 85.5356 9.73333 85.5356 8.88C85.5356 8.66667 85.461 8.47467 85.3116 8.304C85.173 8.13333 84.949 7.984 84.6396 7.856C84.341 7.728 84.0476 7.62667 83.7596 7.552C83.4823 7.46667 83.1196 7.36533 82.6716 7.248C82.6076 7.23733 82.5543 7.22667 82.5116 7.216C82.4796 7.20533 82.4316 7.19467 82.3676 7.184C82.3143 7.16267 82.2663 7.14667 82.2236 7.136C80.005 6.60267 78.8956 5.53067 78.8956 3.92C78.8956 2.96 79.285 2.14933 80.0636 1.488C80.853 0.816 81.9036 0.48 83.2156 0.48C84.9223 0.48 86.213 1.056 87.0876 2.208C87.4503 2.72 87.7063 3.29067 87.8556 3.92H85.3756C85.3116 3.696 85.189 3.48267 85.0076 3.28C84.6023 2.85333 84.005 2.64 83.2156 2.64C82.6076 2.64 82.149 2.75733 81.8396 2.992C81.5303 3.216 81.3756 3.49867 81.3756 3.84C81.3756 4.45867 82.0796 4.928 83.4876 5.248C83.8503 5.33333 84.0743 5.38667 84.1596 5.408C84.2556 5.42933 84.4743 5.488 84.8156 5.584C85.1676 5.68 85.4023 5.76 85.5196 5.824C85.6476 5.87733 85.8556 5.968 86.1436 6.096C86.4423 6.21333 86.6503 6.32533 86.7676 6.432C86.8956 6.53867 87.0556 6.68267 87.2476 6.864C87.4503 7.03467 87.5943 7.21067 87.6796 7.392C87.765 7.57333 87.8396 7.78667 87.9036 8.032C87.9783 8.26667 88.0156 8.52267 88.0156 8.8C88.0156 9.792 87.6156 10.6293 86.8156 11.312C86.0156 11.984 84.8956 12.32 83.4556 12.32C81.557 12.32 80.165 11.68 79.2796 10.4C78.8636 9.84533 78.5756 9.20533 78.4156 8.48ZM88.6581 12L91.6181 0.799999H96.6581L99.6181 12H97.1381L96.4981 9.52H91.7781L91.1381 12H88.6581ZM92.3381 7.28H95.9381L94.8181 3.04H93.4581L92.3381 7.28ZM100.743 12V0.799999H103.143V9.76H108.663V12H100.743ZM109.868 12V0.799999H118.268V3.04H112.268V5.28H117.068V7.36H112.268V9.76H118.268V12H109.868ZM125.679 10.64C124.527 9.50933 123.951 8.096 123.951 6.4C123.951 4.704 124.527 3.296 125.679 2.176C126.841 1.04533 128.319 0.48 130.111 0.48C132.127 0.48 133.673 1.18933 134.751 2.608C135.241 3.23733 135.588 3.94133 135.791 4.72H133.311C133.172 4.35733 132.959 4.02667 132.671 3.728C131.999 3.056 131.145 2.72 130.111 2.72C129.065 2.72 128.201 3.06667 127.519 3.76C126.847 4.44267 126.511 5.32267 126.511 6.4C126.511 7.52 126.836 8.416 127.487 9.088C128.148 9.74933 129.023 10.08 130.111 10.08C131.199 10.08 132.073 9.70667 132.735 8.96C133.033 8.608 133.252 8.23467 133.391 7.84H135.871C135.625 8.68267 135.257 9.42933 134.767 10.08C133.615 11.5733 132.063 12.32 130.111 12.32C128.319 12.32 126.841 11.76 125.679 10.64ZM141.308 5.04V2.4L143.468 0.799999H145.628V12H143.228V3.6L141.308 5.04ZM152.274 12V0.799999H162.034V12H159.634V3.04H154.674V12H152.274ZM165.398 10.608C164.225 9.456 163.638 8.05333 163.638 6.4C163.638 4.74667 164.225 3.34933 165.398 2.208C166.582 1.056 168.049 0.48 169.798 0.48C171.547 0.48 173.009 1.056 174.182 2.208C175.366 3.34933 175.958 4.74667 175.958 6.4C175.958 8.05333 175.366 9.456 174.182 10.608C173.009 11.7493 171.547 12.32 169.798 12.32C168.049 12.32 166.582 11.7493 165.398 10.608ZM167.206 3.76C166.534 4.44267 166.198 5.32267 166.198 6.4C166.198 7.47733 166.534 8.36267 167.206 9.056C167.889 9.73867 168.753 10.08 169.798 10.08C170.843 10.08 171.702 9.73867 172.374 9.056C173.057 8.36267 173.398 7.47733 173.398 6.4C173.398 5.32267 173.057 4.44267 172.374 3.76C171.702 3.06667 170.843 2.72 169.798 2.72C168.753 2.72 167.889 3.06667 167.206 3.76ZM181.4 8.64H183.88C183.965 8.91733 184.093 9.15733 184.264 9.36C184.659 9.84 185.251 10.08 186.04 10.08C186.701 10.08 187.213 9.93067 187.576 9.632C187.939 9.33333 188.12 8.94933 188.12 8.48C188.12 7.98933 187.955 7.6 187.624 7.312C187.304 7.024 186.829 6.88 186.2 6.88H183.48V5.12L186.44 3.12V3.04H181.96V0.799999H189.88V3.04L186.92 4.88L186.76 4.944V5.04H187.16C188.12 5.04 188.931 5.376 189.592 6.048C190.264 6.70933 190.6 7.52 190.6 8.48C190.6 9.55733 190.179 10.4693 189.336 11.216C188.504 11.952 187.405 12.32 186.04 12.32C184.269 12.32 182.973 11.7067 182.152 10.48C181.779 9.94667 181.528 9.33333 181.4 8.64ZM193.286 10.672C192.241 9.56267 191.718 8.13867 191.718 6.4C191.718 4.66133 192.241 3.24267 193.286 2.144C194.331 1.03467 195.622 0.48 197.158 0.48C198.694 0.48 199.985 1.03467 201.03 2.144C202.075 3.24267 202.598 4.66133 202.598 6.4C202.598 8.13867 202.075 9.56267 201.03 10.672C199.985 11.7707 198.694 12.32 197.158 12.32C195.622 12.32 194.331 11.7707 193.286 10.672ZM195.062 3.664C194.539 4.28267 194.278 5.19467 194.278 6.4C194.278 7.60533 194.539 8.52267 195.062 9.152C195.595 9.77067 196.294 10.08 197.158 10.08C198.022 10.08 198.715 9.77067 199.238 9.152C199.771 8.52267 200.038 7.60533 200.038 6.4C200.038 5.19467 199.771 4.28267 199.238 3.664C198.715 3.03467 198.022 2.72 197.158 2.72C196.294 2.72 195.595 3.03467 195.062 3.664ZM208.759 12V0.799999H211.159V7.28L210.999 8.64H211.159L215.719 0.799999H218.679V12H216.279V5.52L216.439 4.16H216.279L211.719 12H208.759ZM220.759 12V0.799999H223.159V5.28H224.519C224.764 3.904 225.409 2.76267 226.455 1.856C227.511 0.938666 228.812 0.48 230.359 0.48C232.033 0.48 233.436 1.04533 234.567 2.176C235.708 3.30667 236.279 4.71467 236.279 6.4C236.279 8.08533 235.708 9.49333 234.567 10.624C233.436 11.7547 232.033 12.32 230.359 12.32C228.812 12.32 227.511 11.8667 226.455 10.96C225.409 10.0427 224.764 8.896 224.519 7.52H223.159V12H220.759ZM226.919 6.4C226.919 7.50933 227.239 8.4 227.879 9.072C228.519 9.744 229.345 10.08 230.359 10.08C231.372 10.08 232.199 9.744 232.839 9.072C233.479 8.4 233.799 7.50933 233.799 6.4C233.799 5.30133 233.479 4.416 232.839 3.744C232.199 3.06133 231.372 2.72 230.359 2.72C229.345 2.72 228.519 3.06133 227.879 3.744C227.239 4.416 226.919 5.30133 226.919 6.4ZM237.884 12V0.799999H240.284V5.2H245.244V0.799999H247.644V12H245.244V7.44H240.284V12H237.884ZM249.408 4.56C249.408 3.49333 249.808 2.60267 250.608 1.888C251.408 1.16267 252.474 0.799999 253.808 0.799999H259.008V12H256.608V8.32H254.208L252.048 12H249.408L251.888 8C251.194 7.744 250.608 7.312 250.128 6.704C249.648 6.096 249.408 5.38133 249.408 4.56ZM251.888 4.56C251.888 5.01867 252.053 5.38667 252.384 5.664C252.714 5.94133 253.189 6.08 253.808 6.08H256.608V3.04H253.808C253.189 3.04 252.714 3.184 252.384 3.472C252.053 3.76 251.888 4.12267 251.888 4.56Z" fill="black"/>
</svg>
