<svg width="381" height="14" viewBox="0 0 381 14" fill="none" xmlns="http://www.w3.org/2000/svg">
<path d="M0.32 8.56H2.8C2.896 8.848 3.056 9.104 3.28 9.328C3.78133 9.82933 4.50133 10.08 5.44 10.08C6.13333 10.08 6.65067 9.952 6.992 9.696C7.344 9.42933 7.52 9.07733 7.52 8.64C7.52 7.78667 6.8 7.36 5.36 7.36H3.84V5.12H5.36C6.58667 5.12 7.2 4.72 7.2 3.92C7.2 3.57867 7.04533 3.296 6.736 3.072C6.42667 2.83733 5.968 2.72 5.36 2.72C4.56 2.72 3.94667 2.93333 3.52 3.36C3.328 3.552 3.19467 3.76533 3.12 4H0.64C0.778667 3.36 1.056 2.77333 1.472 2.24C2.368 1.06667 3.69067 0.48 5.44 0.48C6.752 0.48 7.78667 0.8 8.544 1.44C9.30133 2.06933 9.68 2.84267 9.68 3.76C9.68 4.51733 9.39733 5.136 8.832 5.616C8.61867 5.79733 8.34133 5.952 8 6.08V6.24C8.36267 6.34667 8.69333 6.51733 8.992 6.752C9.664 7.27467 10 7.984 10 8.88C10 9.89333 9.6 10.72 8.8 11.36C8.01067 12 6.864 12.32 5.36 12.32C3.46133 12.32 2.05867 11.696 1.152 10.448C0.746667 9.89333 0.469333 9.264 0.32 8.56ZM10.6425 12L13.6025 0.799999H18.6425L21.6025 12H19.1225L18.4825 9.52H13.7625L13.1225 12H10.6425ZM14.3225 7.28H17.9225L16.8025 3.04H15.4425L14.3225 7.28ZM22.7275 12V0.799999H25.1275V5.2H26.7275L29.7675 0.799999H32.4875L28.8075 6.16L32.7275 12H29.9275L26.8075 7.44H25.1275V12H22.7275ZM33.6806 12V0.799999H38.8806C40.214 0.799999 41.2913 1.17867 42.1126 1.936C42.9446 2.68267 43.3606 3.61067 43.3606 4.72C43.3606 5.82933 42.9446 6.76267 42.1126 7.52C41.2913 8.26667 40.214 8.64 38.8806 8.64H36.0806V12H33.6806ZM36.0806 6.4H38.8006C39.462 6.4 39.974 6.24533 40.3366 5.936C40.6993 5.62667 40.8806 5.22133 40.8806 4.72C40.8806 4.21867 40.6993 3.81333 40.3366 3.504C39.974 3.19467 39.462 3.04 38.8006 3.04H36.0806V6.4ZM55.2038 12V0.799999H57.6038V12H55.2038ZM44.8838 12V0.799999H47.2838V4.32H49.6038C50.9798 4.32 52.0678 4.68267 52.8678 5.408C53.6784 6.13333 54.0838 7.05067 54.0838 8.16C54.0838 9.26933 53.6784 10.1867 52.8678 10.912C52.0678 11.6373 50.9798 12 49.6038 12H44.8838ZM47.2838 9.76H49.6838C50.3131 9.76 50.7878 9.616 51.1078 9.328C51.4384 9.04 51.6038 8.65067 51.6038 8.16C51.6038 7.66933 51.4384 7.28 51.1078 6.992C50.7878 6.704 50.3131 6.56 49.6838 6.56H47.2838V9.76ZM58.8006 3.04V0.799999H68.4006V3.04H64.8006V12H62.4006V3.04H58.8006ZM68.0019 12L70.9619 0.799999H76.0019L78.9619 12H76.4819L75.8419 9.52H71.1219L70.4819 12H68.0019ZM71.6819 7.28H75.2819L74.1619 3.04H72.8019L71.6819 7.28ZM79.7669 4.56C79.7669 3.49333 80.1669 2.60267 80.9669 1.888C81.7669 1.16267 82.8335 0.799999 84.1669 0.799999H89.3669V12H86.9669V8.32H84.5669L82.4069 12H79.7669L82.2469 8C81.5535 7.744 80.9669 7.312 80.4869 6.704C80.0069 6.096 79.7669 5.38133 79.7669 4.56ZM82.2469 4.56C82.2469 5.01867 82.4122 5.38667 82.7429 5.664C83.0735 5.94133 83.5482 6.08 84.1669 6.08H86.9669V3.04H84.1669C83.5482 3.04 83.0735 3.184 82.7429 3.472C82.4122 3.76 82.2469 4.12267 82.2469 4.56ZM95.9306 12V0.799999H101.131C102.464 0.799999 103.541 1.17867 104.363 1.936C105.195 2.68267 105.611 3.61067 105.611 4.72C105.611 5.82933 105.195 6.76267 104.363 7.52C103.541 8.26667 102.464 8.64 101.131 8.64H98.3306V12H95.9306ZM98.3306 6.4H101.051C101.712 6.4 102.224 6.24533 102.587 5.936C102.949 5.62667 103.131 5.22133 103.131 4.72C103.131 4.21867 102.949 3.81333 102.587 3.504C102.224 3.19467 101.712 3.04 101.051 3.04H98.3306V6.4ZM105.861 12L108.821 0.799999H113.861L116.821 12H114.341L113.701 9.52H108.981L108.341 12H105.861ZM109.541 7.28H113.141L112.021 3.04H110.661L109.541 7.28ZM118.882 10.64C117.73 9.50933 117.154 8.096 117.154 6.4C117.154 4.704 117.73 3.296 118.882 2.176C120.044 1.04533 121.522 0.48 123.314 0.48C125.33 0.48 126.876 1.18933 127.954 2.608C128.444 3.23733 128.791 3.94133 128.994 4.72H126.514C126.375 4.35733 126.162 4.02667 125.874 3.728C125.202 3.056 124.348 2.72 123.314 2.72C122.268 2.72 121.404 3.06667 120.722 3.76C120.05 4.44267 119.714 5.32267 119.714 6.4C119.714 7.52 120.039 8.416 120.69 9.088C121.351 9.74933 122.226 10.08 123.314 10.08C124.402 10.08 125.276 9.70667 125.938 8.96C126.236 8.608 126.455 8.23467 126.594 7.84H129.074C128.828 8.68267 128.46 9.42933 127.97 10.08C126.818 11.5733 125.266 12.32 123.314 12.32C121.522 12.32 120.044 11.76 118.882 10.64ZM130.587 12V0.799999H140.347V12H137.947V3.04H132.987V12H130.587ZM142.431 12V0.799999H147.631C148.964 0.799999 150.041 1.17867 150.863 1.936C151.695 2.68267 152.111 3.61067 152.111 4.72C152.111 5.82933 151.695 6.76267 150.863 7.52C150.041 8.26667 148.964 8.64 147.631 8.64H144.831V12H142.431ZM144.831 6.4H147.551C148.212 6.4 148.724 6.24533 149.087 5.936C149.449 5.62667 149.631 5.22133 149.631 4.72C149.631 4.21867 149.449 3.81333 149.087 3.504C148.724 3.19467 148.212 3.04 147.551 3.04H144.831V6.4ZM154.914 10.608C153.74 9.456 153.154 8.05333 153.154 6.4C153.154 4.74667 153.74 3.34933 154.914 2.208C156.098 1.056 157.564 0.48 159.314 0.48C161.063 0.48 162.524 1.056 163.698 2.208C164.882 3.34933 165.474 4.74667 165.474 6.4C165.474 8.05333 164.882 9.456 163.698 10.608C162.524 11.7493 161.063 12.32 159.314 12.32C157.564 12.32 156.098 11.7493 154.914 10.608ZM156.722 3.76C156.05 4.44267 155.714 5.32267 155.714 6.4C155.714 7.47733 156.05 8.36267 156.722 9.056C157.404 9.73867 158.268 10.08 159.314 10.08C160.359 10.08 161.218 9.73867 161.89 9.056C162.572 8.36267 162.914 7.47733 162.914 6.4C162.914 5.32267 162.572 4.44267 161.89 3.76C161.218 3.06667 160.359 2.72 159.314 2.72C158.268 2.72 157.404 3.06667 156.722 3.76ZM166.111 14V9.76H167.391L169.711 0.799999H174.751L177.071 9.76H178.351V14H176.031V12H168.431V14H166.111ZM169.711 9.76H174.751L172.991 3.04H171.471L169.711 9.76ZM178.518 12L181.478 0.799999H186.517L189.478 12H186.998L186.358 9.52H181.638L180.998 12H178.518ZM182.198 7.28H185.798L184.678 3.04H183.318L182.198 7.28ZM189.482 12L193.243 6.16L189.723 0.799999H192.443L195.323 5.2H196.603V0.799999H199.003V5.2H200.283L203.163 0.799999H205.883L202.363 6.16L206.123 12H203.323L200.363 7.44H199.003V12H196.603V7.44H195.243L192.283 12H189.482ZM206.127 12L209.087 0.799999H214.127L217.087 12H214.607L213.967 9.52H209.247L208.607 12H206.127ZM209.807 7.28H213.407L212.287 3.04H210.927L209.807 7.28ZM223.46 10.64C222.308 9.50933 221.732 8.096 221.732 6.4C221.732 4.704 222.308 3.296 223.46 2.176C224.623 1.04533 226.1 0.48 227.892 0.48C229.908 0.48 231.455 1.18933 232.532 2.608C233.023 3.23733 233.369 3.94133 233.572 4.72H231.092C230.953 4.35733 230.74 4.02667 230.452 3.728C229.78 3.056 228.927 2.72 227.892 2.72C226.847 2.72 225.983 3.06667 225.3 3.76C224.628 4.44267 224.292 5.32267 224.292 6.4C224.292 7.52 224.617 8.416 225.268 9.088C225.929 9.74933 226.804 10.08 227.892 10.08C228.98 10.08 229.855 9.70667 230.516 8.96C230.815 8.608 231.033 8.23467 231.172 7.84H233.652C233.407 8.68267 233.039 9.42933 232.548 10.08C231.396 11.5733 229.844 12.32 227.892 12.32C226.1 12.32 224.623 11.76 223.46 10.64ZM239.169 12V9.76L242.929 7.28C243.825 6.68267 244.449 6.176 244.801 5.76C245.153 5.33333 245.329 4.85333 245.329 4.32C245.329 3.82933 245.175 3.44 244.865 3.152C244.556 2.864 244.124 2.72 243.569 2.72C242.833 2.72 242.284 2.98667 241.921 3.52C241.761 3.76533 241.649 4.032 241.585 4.32H239.089C239.196 3.616 239.431 2.976 239.793 2.4C240.604 1.12 241.863 0.48 243.569 0.48C244.86 0.48 245.9 0.842666 246.689 1.568C247.489 2.28267 247.889 3.17333 247.889 4.24C247.889 4.90133 247.767 5.48267 247.521 5.984C247.287 6.47467 246.967 6.90667 246.561 7.28C246.167 7.64267 245.585 8.08533 244.817 8.608L243.569 9.44L242.769 9.76V9.84L243.809 9.76H247.889V12H239.169ZM249.171 8.72H251.651C251.726 8.98667 251.854 9.216 252.035 9.408C252.441 9.856 253.033 10.08 253.811 10.08C254.441 10.08 254.931 9.92533 255.283 9.616C255.635 9.296 255.811 8.89067 255.811 8.4C255.811 7.86667 255.635 7.44 255.283 7.12C254.931 6.8 254.441 6.64 253.811 6.64C253.267 6.64 252.803 6.76267 252.419 7.008C252.249 7.136 252.126 7.25333 252.051 7.36H249.571L250.051 0.799999H257.411V3.04H252.131L251.971 5.28H252.051C252.201 5.13067 252.382 4.99733 252.595 4.88C253.107 4.61333 253.673 4.48 254.291 4.48C255.443 4.48 256.409 4.864 257.187 5.632C257.977 6.38933 258.371 7.312 258.371 8.4C258.371 9.50933 257.95 10.4427 257.107 11.2C256.275 11.9467 255.177 12.32 253.811 12.32C252.073 12.32 250.777 11.7227 249.923 10.528C249.55 9.984 249.299 9.38133 249.171 8.72ZM264.368 12V0.799999H274.128V12H271.728V3.04H266.768V12H264.368ZM277.492 10.608C276.319 9.456 275.732 8.05333 275.732 6.4C275.732 4.74667 276.319 3.34933 277.492 2.208C278.676 1.056 280.143 0.48 281.892 0.48C283.641 0.48 285.103 1.056 286.276 2.208C287.46 3.34933 288.052 4.74667 288.052 6.4C288.052 8.05333 287.46 9.456 286.276 10.608C285.103 11.7493 283.641 12.32 281.892 12.32C280.143 12.32 278.676 11.7493 277.492 10.608ZM279.3 3.76C278.628 4.44267 278.292 5.32267 278.292 6.4C278.292 7.47733 278.628 8.36267 279.3 9.056C279.983 9.73867 280.847 10.08 281.892 10.08C282.937 10.08 283.796 9.73867 284.468 9.056C285.151 8.36267 285.492 7.47733 285.492 6.4C285.492 5.32267 285.151 4.44267 284.468 3.76C283.796 3.06667 282.937 2.72 281.892 2.72C280.847 2.72 279.983 3.06667 279.3 3.76ZM293.494 8.64H295.974C296.059 8.91733 296.187 9.15733 296.358 9.36C296.752 9.84 297.344 10.08 298.134 10.08C298.795 10.08 299.307 9.93067 299.67 9.632C300.032 9.33333 300.214 8.94933 300.214 8.48C300.214 7.98933 300.048 7.6 299.718 7.312C299.398 7.024 298.923 6.88 298.294 6.88H295.574V5.12L298.534 3.12V3.04H294.054V0.799999H301.974V3.04L299.014 4.88L298.854 4.944V5.04H299.254C300.214 5.04 301.024 5.376 301.686 6.048C302.358 6.70933 302.694 7.52 302.694 8.48C302.694 9.55733 302.272 10.4693 301.43 11.216C300.598 11.952 299.499 12.32 298.134 12.32C296.363 12.32 295.067 11.7067 294.246 10.48C293.872 9.94667 293.622 9.33333 293.494 8.64ZM303.652 5.04V2.4L305.812 0.799999H307.972V12H305.572V3.6L303.652 5.04ZM314.618 12V0.799999H318.218L320.938 7.2H321.338L324.058 0.799999H327.658V12H325.258V4.88L325.418 3.44H325.258L322.698 9.44H319.578L317.018 3.44H316.858L317.018 4.88V12H314.618ZM328.705 12L331.665 0.799999H336.705L339.665 12H337.185L336.545 9.52H331.825L331.185 12H328.705ZM332.385 7.28H335.985L334.865 3.04H333.505L332.385 7.28ZM340.47 4.56C340.47 3.49333 340.87 2.60267 341.67 1.888C342.47 1.16267 343.537 0.799999 344.87 0.799999H350.07V12H347.67V8.32H345.27L343.11 12H340.47L342.95 8C342.257 7.744 341.67 7.312 341.19 6.704C340.71 6.096 340.47 5.38133 340.47 4.56ZM342.95 4.56C342.95 5.01867 343.115 5.38667 343.446 5.664C343.777 5.94133 344.251 6.08 344.87 6.08H347.67V3.04H344.87C344.251 3.04 343.777 3.184 343.446 3.472C343.115 3.76 342.95 4.12267 342.95 4.56Z" fill="black"/>
</svg>
