<svg width="100" height="100" viewBox="0 0 100 100" fill="white" xmlns="http://www.w3.org/2000/svg">
<path d="M87.4594 99.9935H12.5049C10.8508 100.048 9.2033 99.759 7.66664 99.1444C6.12998 98.5297 4.73759 97.6029 3.5775 96.4225C2.40608 95.2707 1.48446 93.8899 0.870091 92.3662C0.255718 90.8426 -0.0382403 89.2087 0.00653743 87.5665V12.5049C-0.0481686 10.8508 0.240951 9.2033 0.855614 7.66664C1.47028 6.12998 2.39711 4.73759 3.5775 3.5775C4.73759 2.39711 6.12998 1.47028 7.66664 0.855614C9.2033 0.240951 10.8508 -0.0481686 12.5049 0.00653743H87.4951C89.1492 -0.0481686 90.7967 0.240951 92.3334 0.855614C93.87 1.47028 95.2624 2.39711 96.4225 3.5775C97.6029 4.73759 98.5297 6.12998 99.1444 7.66664C99.759 9.2033 100.048 10.8508 99.9935 12.5049V87.4951C99.9746 90.8102 98.6469 93.9837 96.2994 96.3246C93.9518 98.6654 90.7746 99.9841 87.4594 99.9935ZM67.6048 79.7461C70.2122 79.7121 72.7306 78.7929 74.7468 77.1393C76.1906 76.2429 77.4087 75.0262 78.3066 73.5833C79.2045 72.1405 79.7581 70.5102 79.9247 68.819C79.7767 67.6858 79.3589 66.6046 78.7065 65.6663C78.054 64.7281 77.186 63.96 76.1751 63.4268C73.9728 61.7364 71.6582 60.1974 69.2475 58.8203C67.8508 57.5 66.0254 56.7267 64.1053 56.642H62.5341C61.5818 56.642 60.3915 57.8323 58.9631 60.213C58.5833 60.8137 58.0554 61.3067 57.43 61.6444C56.8046 61.9821 56.1028 62.1532 55.3922 62.1413C54.4533 62.1132 53.5299 61.8945 52.6782 61.4985C46.0869 58.8696 40.8083 53.7323 38.0016 47.2146C37.4255 46.2001 37.1067 45.0599 37.0731 43.8937C37.1022 43.3551 37.1619 42.8186 37.2517 42.2867C37.2517 41.5011 38.1444 40.6798 39.6799 39.7513C40.5687 39.1738 41.3636 38.4632 42.0368 37.6445C42.7355 36.7247 43.078 35.5832 43.0009 34.4306C42.5285 32.6797 41.7552 31.0243 40.7155 29.5384C36.2875 22.7536 32.7165 19.3611 30.0026 19.3611C29.3202 19.3613 28.6432 19.4822 28.0029 19.7182C22.3608 21.6823 19.6111 25.0033 19.6111 29.8598C19.6362 31.5502 19.9752 33.2212 20.611 34.7877C24.5982 44.7485 30.566 53.7964 38.1527 61.3831C45.7394 68.9698 54.7872 74.9375 64.7481 78.9248C65.6013 79.4681 66.5933 79.7533 67.6048 79.7461ZM77.6392 50C78.5439 50 79.0438 49.7143 79.139 49.143C79.1962 48.8361 79.1962 48.5214 79.139 48.2145C79.1518 47.9647 79.1518 47.7144 79.139 47.4646C79.0982 47.1206 79.0982 46.773 79.139 46.429C79.1813 41.7359 77.947 37.1195 75.5681 33.0736C73.2174 28.9971 69.9233 25.5438 65.9622 23.0035C61.9629 20.3639 57.3226 18.8583 52.5354 18.647H51.8212H50.7142C49.6786 18.647 49.1787 19.254 49.1787 20.4324C49.1485 20.6492 49.1833 20.8701 49.2786 21.0672C49.374 21.2642 49.5256 21.4285 49.7143 21.5394C50.094 21.7254 50.5065 21.8346 50.9285 21.8608C51.3116 21.8594 51.6901 21.9449 52.0354 22.1108C58.3868 22.6291 64.3824 25.2562 69.0689 29.5741C73.2268 34.3875 75.7302 40.4081 76.2109 46.7504L76.0323 48.0003C76.0477 48.4691 76.1075 48.9354 76.2109 49.3929C76.3894 49.6429 76.8179 50 77.6392 50ZM70.4973 47.1432C70.8898 47.0207 71.2266 46.7639 71.4486 46.4178C71.6706 46.0717 71.7637 45.6585 71.7114 45.2506V44.6078C71.6821 44.4066 71.6821 44.2021 71.7114 44.0008C71.7735 39.594 70.1071 35.3381 67.0692 32.1452C63.9432 28.7553 59.7671 26.5163 55.2136 25.7889C54.5723 25.6219 53.9122 25.5379 53.2496 25.5389H52.2854C51.8212 25.5389 51.5355 26.2888 51.4284 27.5029C51.3213 28.7171 52.214 28.8599 53.7852 28.8599C57.7596 29.4014 61.4861 31.1032 64.4981 33.7521C66.9016 36.5872 68.3839 40.0875 68.7475 43.7865V44.8578C68.7434 45.3336 68.8282 45.8059 68.9975 46.2505C69.1046 46.8218 69.6403 47.0361 70.6044 47.0361L70.4973 47.1432ZM63.3554 44.7864C64.1053 44.7864 64.5695 44.3936 64.6767 43.8937C64.8154 43.3935 64.8874 42.8772 64.8909 42.3581C64.843 41.1966 64.5659 40.056 64.0757 39.0019C63.5854 37.9479 62.8916 37.0011 62.0341 36.2161C61.2796 35.3349 60.3506 34.6198 59.3057 34.1158C58.2608 33.6118 57.1228 33.3299 55.9635 33.2879H54.6422C54.2723 33.3577 53.9435 33.5673 53.724 33.8732C53.5046 34.1791 53.4114 34.5577 53.4638 34.9305C53.4638 35.7162 54.0709 36.2161 55.2493 36.4661C56.9607 36.5404 58.5736 37.2873 59.7371 38.5445C60.9007 39.8017 61.5209 41.4674 61.4628 43.1795C61.5406 43.6175 61.7761 44.0118 62.1248 44.2881C62.4734 44.5645 62.9112 44.7036 63.3554 44.6793V44.7864Z" fill="#48C95F"/>
</svg>
