<svg width="288" height="29" viewBox="0 0 288 29" fill="none" xmlns="http://www.w3.org/2000/svg">
<rect width="288" height="29" fill="white"/>
<path d="M2.04 20V8.8H7.8C8.92 8.8 9.8 9.072 10.44 9.616C11.08 10.16 11.4 10.848 11.4 11.68C11.4 12.48 11.1067 13.1093 10.52 13.568C10.2427 13.76 9.94933 13.904 9.64 14V14.08C10.0133 14.1547 10.3707 14.304 10.712 14.528C11.4373 15.008 11.8 15.7387 11.8 16.72C11.8 17.68 11.4373 18.4693 10.712 19.088C9.99733 19.696 9 20 7.72 20H2.04ZM4.44 13.2H7.48C7.93867 13.2 8.29067 13.0987 8.536 12.896C8.792 12.6827 8.92 12.4107 8.92 12.08C8.92 11.7493 8.792 11.4827 8.536 11.28C8.29067 11.0667 7.93867 10.96 7.48 10.96H4.44V13.2ZM4.44 17.84H7.56C8.14667 17.84 8.584 17.7227 8.872 17.488C9.17067 17.2533 9.32 16.944 9.32 16.56C9.32 16.176 9.17067 15.8667 8.872 15.632C8.584 15.3973 8.14667 15.28 7.56 15.28H4.44V17.84ZM13.3994 20V8.8H15.7994V17.76H21.3194V20H13.3994ZM21.5644 20L24.5244 8.8H29.5644L32.5244 20H30.0444L29.4044 17.52H24.6844L24.0444 20H21.5644ZM25.2444 15.28H28.8444L27.7244 11.04H26.3644L25.2444 15.28ZM34.5849 18.64C33.4329 17.5093 32.8569 16.096 32.8569 14.4C32.8569 12.704 33.4329 11.296 34.5849 10.176C35.7475 9.04533 37.2249 8.48 39.0169 8.48C41.0329 8.48 42.5795 9.18933 43.6569 10.608C44.1475 11.2373 44.4942 11.9413 44.6969 12.72H42.2169C42.0782 12.3573 41.8649 12.0267 41.5769 11.728C40.9049 11.056 40.0515 10.72 39.0169 10.72C37.9715 10.72 37.1075 11.0667 36.4249 11.76C35.7529 12.4427 35.4169 13.3227 35.4169 14.4C35.4169 15.52 35.7422 16.416 36.3929 17.088C37.0542 17.7493 37.9289 18.08 39.0169 18.08C40.1049 18.08 40.9795 17.7067 41.6409 16.96C41.9395 16.608 42.1582 16.2347 42.2969 15.84H44.7769C44.5315 16.6827 44.1635 17.4293 43.6729 18.08C42.5209 19.5733 40.9689 20.32 39.0169 20.32C37.2249 20.32 35.7475 19.76 34.5849 18.64ZM46.29 20V8.8H48.69V13.2H50.29L53.33 8.8H56.05L52.37 14.16L56.29 20H53.49L50.37 15.44H48.69V20H46.29ZM61.7275 20V8.8H69.8875V11.04H64.1275V13.76H68.6075V15.92H64.1275V20H61.7275ZM71.3213 20V8.8H76.6013C77.9346 8.8 79.0013 9.16267 79.8013 9.888C80.6013 10.6027 81.0013 11.4933 81.0013 12.56C81.0013 13.392 80.7666 14.1013 80.2973 14.688C79.8279 15.2747 79.2093 15.712 78.4413 16L81.0013 20H78.2812L75.9613 16.32H73.7213V20H71.3213ZM73.7213 14.08H76.5213C77.1826 14.08 77.6786 13.9467 78.0093 13.68C78.3506 13.4027 78.5213 13.0293 78.5213 12.56C78.5213 12.0907 78.3506 11.7227 78.0093 11.456C77.6786 11.1787 77.1826 11.04 76.5213 11.04H73.7213V14.08ZM82.6025 20V8.8H85.0025V20H82.6025ZM87.0869 20V8.8H91.1669C92.9375 8.8 94.3935 9.33867 95.5349 10.416C96.6762 11.4933 97.2469 12.8213 97.2469 14.4C97.2469 15.9787 96.6762 17.3067 95.5349 18.384C94.3935 19.4613 92.9375 20 91.1669 20H87.0869ZM89.4869 17.76H91.1669C92.2762 17.76 93.1509 17.456 93.7909 16.848C94.4415 16.2293 94.7669 15.4133 94.7669 14.4C94.7669 13.3867 94.4415 12.576 93.7909 11.968C93.1509 11.3493 92.2762 11.04 91.1669 11.04H89.4869V17.76ZM97.58 20L100.54 8.8H105.58L108.54 20H106.06L105.42 17.52H100.7L100.06 20H97.58ZM101.26 15.28H104.86L103.74 11.04H102.38L101.26 15.28ZM107.748 8.8H110.388L113.076 13.44H113.3L115.988 8.8H118.628L114.388 15.92V20H111.988V15.92L107.748 8.8ZM122.794 20V17.76L126.554 15.28C127.45 14.6827 128.074 14.176 128.426 13.76C128.778 13.3333 128.954 12.8533 128.954 12.32C128.954 11.8293 128.8 11.44 128.49 11.152C128.181 10.864 127.749 10.72 127.194 10.72C126.458 10.72 125.909 10.9867 125.546 11.52C125.386 11.7653 125.274 12.032 125.21 12.32H122.714C122.821 11.616 123.056 10.976 123.418 10.4C124.229 9.12 125.488 8.48 127.194 8.48C128.485 8.48 129.525 8.84267 130.314 9.568C131.114 10.2827 131.514 11.1733 131.514 12.24C131.514 12.9013 131.392 13.4827 131.146 13.984C130.912 14.4747 130.592 14.9067 130.186 15.28C129.792 15.6427 129.21 16.0853 128.442 16.608L127.194 17.44L126.394 17.76V17.84L127.434 17.76H131.514V20H122.794ZM132.476 17.92V15.76L136.236 8.8H138.876L135.116 15.68H138.236V13.12H138.396H140.636V15.68H142.156V17.92H140.636V20H138.236V17.92H132.476ZM143.162 19.872C142.917 19.6267 142.794 19.3227 142.794 18.96C142.794 18.5973 142.917 18.2933 143.162 18.048C143.408 17.8027 143.712 17.68 144.074 17.68C144.437 17.68 144.741 17.8027 144.986 18.048C145.232 18.2933 145.354 18.5973 145.354 18.96C145.354 19.3227 145.232 19.6267 144.986 19.872C144.741 20.1173 144.437 20.24 144.074 20.24C143.712 20.24 143.408 20.1173 143.162 19.872ZM146.402 13.04V10.4L148.562 8.8H150.722V20H148.322V11.6L146.402 13.04ZM152.324 13.04V10.4L154.484 8.8H156.644V20H154.244V11.6L152.324 13.04ZM163.29 20V8.8H173.05V20H170.65V11.04H165.69V20H163.29ZM176.414 18.608C175.24 17.456 174.654 16.0533 174.654 14.4C174.654 12.7467 175.24 11.3493 176.414 10.208C177.598 9.056 179.064 8.48 180.814 8.48C182.563 8.48 184.024 9.056 185.198 10.208C186.382 11.3493 186.974 12.7467 186.974 14.4C186.974 16.0533 186.382 17.456 185.198 18.608C184.024 19.7493 182.563 20.32 180.814 20.32C179.064 20.32 177.598 19.7493 176.414 18.608ZM178.222 11.76C177.55 12.4427 177.214 13.3227 177.214 14.4C177.214 15.4773 177.55 16.3627 178.222 17.056C178.904 17.7387 179.768 18.08 180.814 18.08C181.859 18.08 182.718 17.7387 183.39 17.056C184.072 16.3627 184.414 15.4773 184.414 14.4C184.414 13.3227 184.072 12.4427 183.39 11.76C182.718 11.0667 181.859 10.72 180.814 10.72C179.768 10.72 178.904 11.0667 178.222 11.76ZM192.576 20V17.76L196.336 15.28C197.232 14.6827 197.856 14.176 198.208 13.76C198.56 13.3333 198.736 12.8533 198.736 12.32C198.736 11.8293 198.581 11.44 198.272 11.152C197.962 10.864 197.53 10.72 196.976 10.72C196.24 10.72 195.69 10.9867 195.328 11.52C195.168 11.7653 195.056 12.032 194.992 12.32H192.496C192.602 11.616 192.837 10.976 193.2 10.4C194.01 9.12 195.269 8.48 196.976 8.48C198.266 8.48 199.306 8.84267 200.096 9.568C200.896 10.2827 201.296 11.1733 201.296 12.24C201.296 12.9013 201.173 13.4827 200.928 13.984C200.693 14.4747 200.373 14.9067 199.968 15.28C199.573 15.6427 198.992 16.0853 198.224 16.608L196.976 17.44L196.176 17.76V17.84L197.216 17.76H201.296V20H192.576ZM202.258 11.04V8.8H210.418V11.04L206.018 20H203.378L207.698 11.2V11.04H202.258ZM210.069 19.872C209.823 19.6267 209.701 19.3227 209.701 18.96C209.701 18.5973 209.823 18.2933 210.069 18.048C210.314 17.8027 210.618 17.68 210.981 17.68C211.343 17.68 211.647 17.8027 211.893 18.048C212.138 18.2933 212.261 18.5973 212.261 18.96C212.261 19.3227 212.138 19.6267 211.893 19.872C211.647 20.1173 211.343 20.24 210.981 20.24C210.618 20.24 210.314 20.1173 210.069 19.872ZM213.308 13.04V10.4L215.468 8.8H217.628V20H215.228V11.6L213.308 13.04ZM219.23 13.04V10.4L221.39 8.8H223.55V20H221.15V11.6L219.23 13.04Z" fill="black"/>
</svg>
