<?xml version="1.0" encoding="UTF-8" standalone="no"?>
<!-- Created with Inkscape (http://www.inkscape.org/) -->

<svg
   version="1.1"
   id="svg2"
   width="308.45334"
   height="78.09333"
   viewBox="0 0 308.45334 78.09333"
   sodipodi:docname="yoodjee_logo_black.eps"
   xmlns:inkscape="http://www.inkscape.org/namespaces/inkscape"
   xmlns:sodipodi="http://sodipodi.sourceforge.net/DTD/sodipodi-0.dtd"
   xmlns="http://www.w3.org/2000/svg"
   xmlns:svg="http://www.w3.org/2000/svg">
  <defs
     id="defs6" />
  <sodipodi:namedview
     id="namedview4"
     pagecolor="#ffffff"
     bordercolor="#000000"
     borderopacity="0.25"
     inkscape:showpageshadow="2"
     inkscape:pageopacity="0.0"
     inkscape:pagecheckerboard="0"
     inkscape:deskcolor="#d1d1d1" />
  <g
     id="g8"
     inkscape:groupmode="layer"
     inkscape:label="ink_ext_XXXXXX"
     transform="matrix(1.3333333,0,0,-1.3333333,0,78.093333)">
    <g
       id="g10"
       transform="scale(0.1)">
      <path
         d="m 0,579.895 h 94.7578 l 94.7542,-177.207 93.797,177.207 h 94.757 L 235.93,314.992 V 5.78516 H 142.137 V 314.992 L 0,579.895"
         style="fill:#2c2829;fill-opacity:1;fill-rule:nonzero;stroke:none"
         id="path12" />
      <path
         d="m 524.84,496.215 c -31.91,0 -47.375,-14.758 -47.375,-45.195 V 134.664 c 0,-29.523 15.465,-44.2773 47.375,-44.2773 31.906,0 47.379,14.7543 47.379,44.2773 v 225.965 90.391 c 0,30.437 -15.473,45.195 -47.379,45.195 z m -0.965,89.465 c 94.754,0 142.133,-45.192 142.133,-135.582 V 134.664 C 666.008,45.1914 618.629,-0.00390625 523.875,-0.00390625 430.078,-0.00390625 382.703,45.1914 382.703,134.664 v 315.434 c 0,90.39 47.375,135.582 141.172,135.582"
         style="fill:#2c2829;fill-opacity:1;fill-rule:nonzero;stroke:none"
         id="path14" />
      <path
         d="m 858.652,496.215 c -31.906,0 -47.371,-14.758 -47.371,-45.195 V 134.664 c 0,-29.523 15.465,-44.2773 47.371,-44.2773 31.911,0 47.383,14.7543 47.383,44.2773 v 225.965 90.391 c 0,30.437 -15.472,45.195 -47.383,45.195 z m -0.964,89.465 c 94.753,0 142.136,-45.192 142.136,-135.582 V 134.664 C 999.824,45.1914 952.441,-0.00390625 857.688,-0.00390625 763.898,-0.00390625 716.52,45.1914 716.52,134.664 v 315.434 c 0,90.39 47.378,135.582 141.168,135.582"
         style="fill:#2c2829;fill-opacity:1;fill-rule:nonzero;stroke:none"
         id="path16" />
      <path
         d="m 1186.68,506.66 h -41.59 V 93.4805 h 41.59 c 35.77,0 54.14,25.3165 54.14,75.0505 v 263.09 c 0,49.727 -18.37,75.039 -54.14,75.039 z m 146.97,-59.672 V 137.789 c 0,-87.7031 -30.95,-132.00384 -93.8,-132.00384 H 1050.33 V 579.895 h 189.52 c 62.85,0 93.8,-44.305 93.8,-132.907"
         style="fill:#2c2829;fill-opacity:1;fill-rule:nonzero;stroke:none"
         id="path18" />
      <path
         d="M 1655.71,579.895 V 133.324 c 0,-88.5701 -47.38,-133.32790625 -142.14,-133.32790625 -93.8,0 -141.17,44.75780625 -141.17,133.32790625 v 89.504 h 94.75 v -89.504 c 0,-29.219 15.48,-43.8279 47.39,-43.8279 31.9,0 47.37,14.6089 47.37,43.8279 v 446.571 h 93.8"
         style="fill:#2c2829;fill-opacity:1;fill-rule:nonzero;stroke:none"
         id="path20" />
      <path
         d="m 1982.34,491.293 v 88.602 H 1699.03 V 5.78516 h 283.31 V 94.3906 H 1793.79 V 270.688 l 172.34,-0.333 v 88.817 l -172.34,0.121 v 132 h 188.55"
         style="fill:#2c2829;fill-opacity:1;fill-rule:nonzero;stroke:none"
         id="path22" />
      <path
         d="m 2313.42,491.293 v 88.602 h -283.3 V 5.78516 h 283.3 V 94.3906 H 2124.88 V 270.688 l 172.34,-0.333 v 88.817 l -172.34,0.121 v 132 h 188.54"
         style="fill:#2c2829;fill-opacity:1;fill-rule:nonzero;stroke:none"
         id="path24" />
    </g>
  </g>
</svg>
