<svg width="65" height="17" viewBox="0 0 65 17" fill="none" xmlns="http://www.w3.org/2000/svg">
<g clip-path="url(#clip0_24_1596)">
<path d="M0.123549 0.173721C-0.00170453 0.344343 -0.0280737 0.418795 0.0279608 0.44051C0.0444415 0.443613 0.172991 0.685583 0.311429 0.97719C0.453164 1.26569 0.617971 1.61004 0.680598 1.73723C0.878367 2.1312 0.94429 2.27701 0.970659 2.35146C0.983843 2.39179 1.14206 2.71752 1.32005 3.07737C1.49804 3.43412 1.64637 3.73193 1.64637 3.73814C1.64637 3.74434 1.77492 4.00182 1.92984 4.31204C2.08476 4.62226 2.25286 4.97591 2.3056 5.0969C2.35504 5.22099 2.57918 5.68321 2.80002 6.12682C3.30763 7.14434 3.54825 7.64069 3.62406 7.81752C3.68668 7.96642 4.19759 9.01186 4.43491 9.48339L4.57994 9.7719V13.2526L4.58324 16.7363L4.71508 16.8666L4.84693 17H6.0632H7.27948L7.41133 16.8666L7.54317 16.7363L7.54647 13.2929V9.85255L7.65854 9.61679C7.72117 9.4896 7.88268 9.14526 8.02112 8.85675C8.15626 8.56515 8.42984 7.99745 8.6309 7.59416C8.82867 7.18777 9.07588 6.67901 9.17147 6.46186C9.27036 6.24471 9.45494 5.85383 9.58349 5.59945C10.1603 4.43303 10.48 3.78157 10.48 3.76606C10.48 3.74434 10.6514 3.37828 10.8031 3.07117C11.4359 1.79617 12.0952 0.415693 12.0952 0.362955C12.0952 0.347445 12.0523 0.276094 11.9963 0.201641C11.9435 0.12719 11.8974 0.0527363 11.8974 0.0341244C11.8974 0.00930595 11.4821 0 10.5427 0C9.39231 0 9.18136 0.00620461 9.14181 0.0465317C9.11544 0.0713501 9.07259 0.102371 9.04951 0.11478C9.00666 0.139599 8.87811 0.378468 8.5518 1.05474C8.45621 1.25018 8.2881 1.58522 8.17933 1.79927C7.97497 2.20566 7.7772 2.62135 7.7772 2.64927C7.7772 2.65858 7.71128 2.79507 7.63217 2.95328C7.55306 3.1115 7.38496 3.44963 7.25641 3.70712C7.13116 3.9615 6.88724 4.45785 6.71584 4.80839C6.54444 5.15894 6.3236 5.61496 6.22801 5.82281L6.05332 6.19817L5.90829 5.90036C5.36772 4.78978 5.08755 4.20657 5.00844 4.01734C4.959 3.89635 4.81726 3.59854 4.6953 3.35036C4.57335 3.10219 4.36239 2.67099 4.22725 2.38869C4.09211 2.10639 3.93719 1.78686 3.88116 1.67518C3.82842 1.5635 3.72953 1.35566 3.66691 1.20985C3.60428 1.06405 3.46255 0.763138 3.35377 0.536678C3.18897 0.201641 3.13623 0.120985 3.05712 0.0899639C3.00768 0.0713501 2.96483 0.0434303 2.96483 0.0279198C2.96483 0.0124092 2.36493 0 1.60681 0L0.245506 0.00310135L0.123549 0.173721Z" fill="black"/>
<path d="M14.4534 0.139599L14.3281 0.26989V8.5031L14.3314 16.7363L14.4633 16.8666L14.5951 17H19.4503H24.3056L24.4572 16.8697L24.6121 16.7394V15.6195V14.4996L24.4671 14.3849L24.3187 14.2701H20.8083H17.2947V12.0675V9.86496H20.5348H23.7749L23.9298 9.71606L24.0847 9.56715V8.48139V7.39562L23.9265 7.24982L23.7683 7.10401H20.5315H17.2947V4.91697V2.72993H20.8149L24.3319 2.72682L24.4737 2.60274L24.6121 2.47865V1.36806V0.260584L24.4572 0.130291L24.3056 0L19.4404 0.00310135L14.5753 0.00620461L14.4534 0.139599Z" fill="black"/>
<path d="M27.4612 0.139599L27.3359 0.26989V8.5031L27.3392 16.7363L27.4711 16.8666L27.6029 17H32.4746H37.3496L37.4848 16.8728L37.6199 16.7456V15.6195V14.4934L37.4815 14.3818L37.343 14.2701H33.8228H30.3025V12.0675V9.86496H33.5426H36.7827L36.9211 9.73157L37.0596 9.59818V8.48139V7.3646L36.9178 7.23431L36.7761 7.10401H33.5393H30.3025V4.91697V2.72993H33.8162H37.3331L37.4749 2.61825L37.6199 2.50967V1.38047V0.251276L37.4815 0.12719L37.3397 0.00310135H32.4614L27.5831 0.00620461L27.4612 0.139599Z" fill="black"/>
<path d="M40.7102 0.133394L40.5718 0.263685V1.38978V2.51277L40.7069 2.63066L40.8454 2.74544L43.8877 2.76095L46.9301 2.77646L46.7982 2.99361C46.7224 3.1115 46.5642 3.39069 46.4455 3.61405C46.1687 4.13212 45.7105 4.94799 45.3677 5.53741C45.0644 6.05858 44.8799 6.39051 44.87 6.43704C44.8667 6.45566 44.781 6.61077 44.6755 6.78759L44.4876 7.10401H43.0439H41.6002L41.4651 7.24672L41.3299 7.39252V8.4969V9.59818L41.4684 9.73157L41.6068 9.86496H42.2957H42.9813L42.8264 10.1349C42.7407 10.2869 42.6154 10.4978 42.5495 10.6095C42.4803 10.7212 42.299 11.0407 42.1474 11.323C41.9924 11.6053 41.6694 12.1761 41.4288 12.5949C41.1882 13.0137 40.852 13.6062 40.6872 13.9133C40.5224 14.2204 40.3543 14.5214 40.3147 14.5803C40.2455 14.6858 40.2422 14.7168 40.2422 15.7126L40.2455 16.7363L40.3773 16.8697L40.5092 17H45.5193H50.5295L50.6778 16.8697L50.8228 16.7425V15.6133V14.4872L50.6877 14.3693L50.5492 14.2546L47.1608 14.2391L43.7691 14.2235L44.0822 13.6807C44.2536 13.3828 44.5206 12.9082 44.6722 12.6259C45.0249 11.9682 45.6083 10.9228 45.9083 10.4078C46.0368 10.1845 46.1522 9.97354 46.1621 9.93321L46.1818 9.86496H47.6552H49.1286L49.267 9.73157L49.4055 9.59818V8.5V7.39872L49.2703 7.25292L49.1385 7.10401L48.4166 7.09781L47.6981 7.0885L47.9618 6.62317C48.1068 6.36569 48.3375 5.96241 48.476 5.72354C48.6144 5.48467 48.8385 5.07828 48.977 4.8239C49.1154 4.56642 49.4055 4.05146 49.6197 3.6761C49.834 3.30073 50.1108 2.81058 50.2361 2.59033L50.4569 2.18704V1.22536V0.263685L50.3251 0.130291L50.1933 0H45.5226L40.852 0.00310135L40.7102 0.133394Z" fill="black"/>
<path d="M52.9961 0.164415C52.9368 0.254379 52.8906 0.344343 52.8906 0.362955C52.8906 0.381569 52.9269 0.471533 52.9697 0.561497C53.0126 0.654562 53.1082 0.862408 53.1807 1.02372C53.2532 1.18504 53.3982 1.48595 53.5004 1.69069C53.6026 1.89544 53.7608 2.21496 53.8531 2.4042C53.9454 2.59033 54.0805 2.86952 54.1596 3.02463C54.2355 3.17664 54.3343 3.38759 54.3838 3.48996C54.631 4.02974 54.8848 4.55401 55.5605 5.90967C55.6363 6.06168 55.7517 6.30675 55.8143 6.45255C55.8802 6.59836 56.0879 7.02956 56.2758 7.41423C56.7999 8.46898 57.1624 9.21971 57.1921 9.30347C57.2053 9.3469 57.2679 9.47719 57.3272 9.59818L57.4393 9.81533V13.2774L57.4426 16.7363L57.5744 16.8666L57.7063 17H58.9226H60.1421L60.2575 16.8821L60.3696 16.7673L60.3729 13.3177V9.87117L60.5344 9.54854C60.8541 8.90949 61.3057 7.98504 61.3452 7.87956C61.3914 7.75858 61.6452 7.2281 61.7737 6.97372C61.9122 6.71004 62.667 5.14343 62.7131 5.02555C62.7395 4.96661 62.8878 4.65328 63.0493 4.33376C63.2076 4.01113 63.3394 3.74434 63.3394 3.73814C63.3394 3.73193 63.4745 3.45894 63.6394 3.12701C63.8042 2.79817 63.9756 2.44142 64.0184 2.33595C64.0613 2.23047 64.2063 1.92025 64.3447 1.64416C64.4799 1.36806 64.5919 1.1385 64.5919 1.1323C64.5919 1.12609 64.6809 0.943066 64.7897 0.729013L64.9908 0.34124L64.9051 0.254379C64.8589 0.207846 64.8029 0.133394 64.7798 0.0837593L64.7403 0H63.3823C62.634 0 62.0209 0.0124092 62.0209 0.0248165C62.0209 0.040329 61.9847 0.0682468 61.9385 0.0868607C61.8528 0.124086 61.5892 0.601824 61.3782 1.10128C61.3288 1.21916 61.2134 1.46423 61.1211 1.64416C61.0321 1.82409 60.8805 2.1312 60.7849 2.32664C60.6893 2.52208 60.5311 2.84471 60.4289 3.04015C60.1751 3.5458 60.007 3.88704 59.9971 3.92427C59.9872 3.9615 59.951 4.03905 59.6214 4.71533C59.4763 5.01314 59.2621 5.44744 59.1467 5.67701C59.028 5.90657 58.9259 6.11752 58.916 6.14234C58.8995 6.18577 58.6721 5.77007 58.6094 5.58084C58.5963 5.54051 58.4512 5.23339 58.2864 4.90146C57.7162 3.73504 57.3009 2.86642 57.2086 2.65237C57.1591 2.53139 57.024 2.24599 56.9119 2.01642C56.7999 1.78686 56.5922 1.35876 56.4505 1.07026C56.3087 0.778648 56.1472 0.446714 56.0912 0.331934C56.022 0.195438 55.9593 0.108576 55.9066 0.0868607C55.8605 0.0682468 55.8242 0.040329 55.8242 0.0248165C55.8242 0.0124092 55.2111 0 54.4629 0H53.1016L52.9961 0.164415Z" fill="black"/>
</g>
<defs>
<clipPath id="clip0_24_1596">
<rect width="65" height="17" fill="white"/>
</clipPath>
</defs>
</svg>
