<svg width="40" height="41" viewBox="0 0 40 41" fill="none" xmlns="http://www.w3.org/2000/svg">
<path d="M22.5833 3.74687V3.61875C22.5833 3.02083 22.7717 2.48612 23.1467 2.01633C23.5217 1.54654 24 1.3125 24.5833 1.3125C25.1667 1.3125 25.6883 1.50383 26.1467 1.88821C26.605 2.27258 26.855 2.78508 26.8967 3.42571C26.9383 4.06633 26.75 4.60104 26.3333 5.02812C25.9167 5.45521 25.4167 5.66875 24.8333 5.66875L24.4583 5.79687L24.5833 5.98821L24.4583 6.69375L24.2083 8.74375C24.2917 8.82917 24.3333 8.91458 24.3333 9L24.0833 10.2812C24 10.4521 23.9167 10.5802 23.8333 10.6656L23.7083 11.1781C23.4902 12.084 23.24 12.9815 22.9583 13.8687V14.125C22.875 14.5521 22.8133 14.8937 22.7717 15.15C22.73 15.4062 22.5833 15.8333 22.3333 16.4312C22.1667 16.7729 22.1667 17.3281 22.3333 18.0969L22.4583 18.225C22.4583 18.4812 22.5633 18.7802 22.7717 19.1219C22.98 19.4635 23.0833 19.7625 23.0833 20.0187C23.1667 21.7271 23.0417 23.1792 22.7083 24.375L22.9583 25.1437C23.9583 25.6562 24.25 26.2115 23.8333 26.8094L24.4583 27.0656C25.4583 27.5781 26.1667 28.0257 26.5833 28.4101C27 28.7945 27.4167 29.201 27.8333 29.6281C28.1667 29.7135 28.4167 29.8417 28.5833 30.0125L28.9583 30.1406C30.7083 31.3365 32.4583 32.7885 34.2083 34.4969L34.7083 34.8812V35.0094L34.5833 35.2656L34.9583 35.5219H35.0833C35.3333 35.6927 35.5 35.7781 35.5833 35.7781H35.7083C35.7917 35.7781 35.875 35.7354 35.9583 35.65L36.2083 35.5219C36.375 35.351 36.5417 35.2229 36.7083 35.1375H37.2083C37.2917 35.1375 37.2917 35.1802 37.2083 35.2656L36.7083 35.5219L36.0833 36.2906H36.9583L37.8333 36.4187C38.0833 36.3333 38.2917 36.2479 38.4583 36.1625L39.0833 35.7781C39.3333 35.6927 39.5833 35.7781 39.8333 36.0344H39.9583C40.0417 36.1198 40 36.2479 39.8333 36.4187L38.3333 37.8281C37.9167 38.1698 37.5417 38.3833 37.2083 38.4687L35.5833 39.6219C35.5 39.7073 35.4167 39.7073 35.3333 39.6219L34.9583 39.1094L34.7083 38.5969L34.395 38.1476L34.02 37.6351L33.7083 37.2507L33.4583 36.9312L32.9583 36.5469C32.7917 36.5469 32.625 36.5042 32.4583 36.4187L30.8333 35.1375C30.5833 35.1375 30.2917 35.0094 29.9583 34.7531C28.7083 33.6427 27.875 32.9594 27.4583 32.7031L26.7083 32.1906L25.2083 31.9344C24.7083 31.849 24.0417 31.5927 23.2083 31.1656L22.2083 30.6531C21.5417 30.3115 21.0833 30.1406 20.8333 30.1406L20.3333 29.8844C20 29.799 19.75 29.7135 19.5833 29.6281L19.3333 29.3719C19.1667 29.3719 19 29.4146 18.8333 29.5L16.3333 30.7812L13.2083 32.1906C12.375 32.874 11.5833 33.4292 10.8333 33.8562L9.45833 34.4969L7.33333 36.0344C7.16667 36.2052 7 36.2052 6.83333 36.0344L6.58333 36.2906C6.33333 36.376 6.16667 36.4187 6.08333 36.4187L5.58333 36.675V36.9312H5.33333L5.08333 37.3156C4.91667 37.6573 4.75 37.8486 4.58333 37.8913C4.41667 37.934 4.31333 37.999 4.27167 38.0844C4.23998 38.1544 4.1978 38.219 4.14667 38.2757L3.89667 38.532L3.52167 38.7882L2.95833 38.725L2.20833 38.8531L1.70833 38.9812C1.29167 39.0667 0.958333 39.0017 0.708333 38.7882C0.458333 38.5747 0.25 38.2552 0.0833333 37.8281C-0.0833333 37.5719 0 37.3583 0.333333 37.1875L0.458333 37.0594C0.541667 36.974 0.666667 36.9312 0.833333 36.9312H1.58333L2.58333 36.5469L3.08333 36.4187C3.08333 36.2479 3.125 36.1198 3.20833 36.0344C3.29167 35.949 3.41667 35.9062 3.58333 35.9062V35.7781C3.50302 35.6197 3.46019 35.4441 3.45833 35.2656C3.375 35.0948 3.35333 34.9667 3.39667 34.8812C3.43833 34.7958 3.48 34.7531 3.52167 34.7531H3.58333L3.70833 35.1375C3.79167 35.5646 3.91667 35.6927 4.08333 35.5219L4.20833 35.2656C4.29167 35.0948 4.41667 35.0094 4.58333 35.0094L4.83333 35.2656L5.08333 35.0094L4.95833 34.8812C4.95833 34.7958 5 34.7531 5.08333 34.7531L5.58333 34.2406C6 33.7281 6.5 33.2583 7.08333 32.8312C8.25 31.8917 9.5 31.1656 10.8333 30.6531C11.25 30.226 11.7083 30.0125 12.2083 30.0125C12.5417 29.4146 13.0417 28.774 13.7083 28.0906C14.2917 27.6635 14.7083 27.3646 14.9583 27.1937C15.125 26.8521 15.3333 26.6812 15.5833 26.6812H15.7083L15.9583 26.425C16.125 26.3396 16.25 26.2542 16.3333 26.1687V25.5281C16.3333 25.101 16.375 24.7594 16.4583 24.5031C16.5417 24.2469 16.75 24.1187 17.0833 24.1187L17.5833 23.6062C17.4167 23.2646 17.3333 22.8802 17.3333 22.4531H17.2083C17.0417 22.1969 16.9583 21.9406 16.9583 21.6844C16.7083 21.2573 16.5417 20.9156 16.4583 20.6594H16.0833C16 20.9156 15.7917 21.0865 15.4583 21.1719L15.3333 21.4281C15 22.026 14.7083 22.4736 14.4583 22.7726C14.2083 23.0715 13.75 23.4354 13.0833 23.8625C12.6667 24.2896 12.375 24.7594 12.2083 25.2719C12.125 25.5281 12.125 25.7844 12.2083 26.0406L12.0833 26.2969H12.2083C12.2083 26.4677 12.25 26.5531 12.3333 26.5531H12.4583C12.625 26.6385 12.7083 26.7445 12.7083 26.8726C12.7083 27.0007 12.5833 27.0434 12.3333 27.0007C12.1247 26.9772 11.9284 26.8876 11.7717 26.7445C11.6467 26.6163 11.5417 26.5531 11.4583 26.5531L11.0833 26.9375C10.9167 27.1937 10.75 27.2997 10.5833 27.257C10.4167 27.2142 10.375 27.151 10.4583 27.0656L10.5833 26.9375C10.6667 26.7667 10.6667 26.6812 10.5833 26.6812L9.58333 26.9375C9.5 27.0229 9.39667 27.0229 9.27167 26.9375C9.14667 26.8521 9.16667 26.7667 9.33333 26.6812L9.95833 26.425C9.95833 26.3396 9.91667 26.2969 9.83333 26.2969C9.5 26.4677 9.16667 26.5104 8.83333 26.425L8.20833 26.2969L8.08333 26.1687C8.08333 26.0833 8.125 26.0406 8.20833 26.0406C8.54167 26.126 8.95833 26.0833 9.45833 25.9125L10.3333 25.5281L11.3333 24.375L11.4583 24.1187C11.7917 23.4354 12.1467 22.8153 12.5217 22.2601C12.8518 21.7555 13.2515 21.3027 13.7083 20.9156L13.8333 20.4031C14 20.0615 14.1667 19.7625 14.3333 19.5062C14.5 19.25 14.7083 18.9083 14.9583 18.4812L15.3333 17.9687C15.6667 17.4562 16.0417 17.2 16.4583 17.2L16.8333 16.8156C16.9167 16.7302 16.9583 16.6021 16.9583 16.4312L17.2083 16.175L17.0833 16.0469C16.5833 15.6198 16.3333 15.2354 16.3333 14.8937C16.25 14.2958 16.4383 13.7833 16.8967 13.3562C17.355 12.9292 17.8133 12.7361 18.2717 12.7788C18.73 12.8215 19.0833 12.9719 19.3333 13.2281L19.5833 13.4844C19.6667 13.4844 19.7083 13.5271 19.7083 13.6125L20.2083 13.8687V14.2531C20.375 14.424 20.4583 14.5521 20.4583 14.6375C20.625 14.3812 20.875 14.0823 21.2083 13.7406L21.8333 11.6906C21.8333 11.349 21.9167 11.0073 22.0833 10.6656L22.3333 10.2812V10.025L22.7083 8.4875H22.9583L23.3333 6.95C23.4171 6.6572 23.4171 6.34592 23.3333 6.05312L22.8333 4.77187L22.5833 3.74687Z" fill="black"/>
</svg>
