<svg width="74" height="35" viewBox="0 0 74 35" fill="none" xmlns="http://www.w3.org/2000/svg">
<path fill-rule="evenodd" clip-rule="evenodd" d="M30.7521 16.0904L22.2724 16.3858L30.3239 16.8234L30.7521 16.0904ZM29.7377 17.8333L21.238 18.1291L29.3195 18.5683L29.7377 17.8333ZM28.7234 19.5909L20.2343 19.8824L28.3059 20.3213L28.7234 19.5909ZM27.73 21.3397L19.2302 21.6358L27.2924 22.0738L27.73 21.3397ZM38.1204 7.29279L27.2975 7.66953L38.1511 8.25951L38.1204 7.29279ZM38.0518 5.56296L28.3292 5.89652L38.0825 6.44369L38.0518 5.56296ZM37.9824 3.89445L29.3199 4.17324L38.0242 4.64599L37.9824 3.89445ZM37.9241 2.18159L30.331 2.42992L37.954 2.87028L37.9241 2.18159ZM37.8748 0.796875H31.2708L37.8846 1.14006L37.8748 0.796875ZM26.7058 23.0876L18.2266 23.388H26.5327L26.7058 23.0876Z" fill="black"/>
<path fill-rule="evenodd" clip-rule="evenodd" d="M55.4484 0.851562H43.2284L42.8819 1.45157L48.997 1.76892C49.0687 1.76892 49.0687 1.8684 48.9662 1.8684L42.5255 2.07895L41.9042 3.14245L47.9775 3.49335C48.0591 3.50337 48.039 3.61289 47.9677 3.61289L41.5163 3.82034L40.9159 4.83873L46.9794 5.16804C47.1118 5.17806 47.1118 5.28796 46.9794 5.28796L40.5387 5.50891L39.9272 6.57396L45.9706 6.9129C46.103 6.92293 46.0932 7.04247 45.9706 7.04247L39.5298 7.26689L38.9078 8.31882L44.961 8.64774C45.0524 8.65777 45.0635 8.76767 44.9409 8.76767L26.3823 9.37577L43.9932 10.3328C44.1047 10.3328 44.0949 10.4724 43.9723 10.4724L25.3837 11.1206L42.9946 12.0773C43.0762 12.0773 43.0963 12.2069 42.9737 12.2069L24.3544 12.8647L41.9653 13.8218C42.0371 13.8318 42.1076 13.9614 41.9555 13.9714L23.3657 14.6185L40.9762 15.5752C41.0271 15.5852 41.0779 15.7147 40.9561 15.7147L31.6002 16.041L31.6309 16.8669L39.9674 17.32C40.0281 17.3301 40.0589 17.4496 39.9465 17.4496L31.6616 17.7376L31.7023 18.6615L38.9385 19.0549C39.0095 19.0649 39.0402 19.2045 38.9176 19.2045L31.7429 19.4509L31.774 20.4646L37.94 20.7997C38.0109 20.8094 38.0314 20.9389 37.9092 20.9389L31.8048 21.1522L31.8454 22.2674L36.941 22.5442C37.0128 22.5542 37.0128 22.6742 36.9107 22.6742L31.8659 22.8527L31.8864 23.332H48.3355C52.6971 23.332 56.6101 20.2217 57.3442 17.7492C58.0786 15.2771 58.0786 13.044 54.5724 11.9277C56.5297 11.4889 59.933 9.32988 60.6059 6.3449C61.2162 3.63294 60.1975 0.861588 55.4484 0.851562ZM47.1745 18.1653H42.1199L44.9732 13.2206H48.7238C52.5966 13.2206 50.7209 18.1653 47.1745 18.1653ZM53.717 7.55764C53.5538 8.15571 52.3301 9.67114 50.782 9.67114H47.0314L49.4362 5.52434H51.3524C53.7978 5.60416 53.8794 6.95995 53.717 7.55764ZM73.9644 30.497C73.9644 28.5809 72.3359 26.976 70.377 26.976C68.3673 26.976 66.7265 28.6063 66.7265 30.6092C66.7245 31.0803 66.8179 31.5471 67.0013 31.9828C67.1847 32.4184 67.4545 32.8142 67.795 33.1473C68.1356 33.4805 68.5403 33.7443 68.9857 33.9236C69.4311 34.103 69.9084 34.1943 70.39 34.1922C71.8774 34.1922 73.2895 33.197 73.7093 31.8408H71.8522C71.4832 32.413 71.0007 32.6741 70.3384 32.6741C69.4991 32.6741 68.7493 32.1142 68.5072 31.3179H73.8745C73.9388 30.9327 73.9644 30.7457 73.9644 30.497ZM68.4568 30.0173C68.6984 29.0841 69.4616 28.4868 70.4026 28.4868C71.3444 28.4868 72.082 29.0718 72.3107 30.0173H68.4568ZM49.8517 27.308V27.8667C49.3179 27.3068 48.5444 26.9883 47.7174 26.9883C45.8858 26.9883 44.3243 28.5184 44.3243 30.5093C44.3243 32.3876 45.7057 34.0723 47.7536 34.0723C48.6568 34.0723 49.3435 33.8683 49.992 33.1468V34.0303H51.5444V27.308H49.8517ZM47.9559 32.6475C47.3902 32.6475 46.8477 32.4277 46.4477 32.0364C46.0477 31.6452 45.8229 31.1145 45.8229 30.5612C45.8229 30.0078 46.0477 29.4772 46.4477 29.0859C46.8477 28.6946 47.3902 28.4748 47.9559 28.4748C48.5215 28.4748 49.0641 28.6946 49.4641 29.0859C49.8641 29.4772 50.0888 30.0078 50.0888 30.5612C50.0888 31.1145 49.8641 31.6452 49.4641 32.0364C49.0641 32.4277 48.5215 32.6475 47.9559 32.6475ZM3.59451 26.9756C2.89517 26.9756 2.361 27.212 1.77559 27.7969V27.1376H0.210938V34.0303H1.90292V30.7827C1.90292 29.8997 1.97901 28.4933 3.22552 28.4933C4.39556 28.4933 4.52289 29.8121 4.52289 30.6581V34.0299H6.21448V30.3346C6.21448 29.364 6.1384 28.904 5.87112 28.3565C5.4769 27.5355 4.54852 26.9756 3.59451 26.9756ZM14.1059 30.497C14.1059 28.5809 12.4778 26.976 10.519 26.976C8.50923 26.976 6.86849 28.6063 6.86849 30.6092C6.86651 31.0802 6.95991 31.547 7.14329 31.9826C7.32667 32.4182 7.59642 32.814 7.93696 33.1471C8.2775 33.4802 8.68211 33.744 9.12743 33.9234C9.57275 34.1028 10.05 34.1942 10.5316 34.1922C12.0197 34.1922 13.4314 33.197 13.8513 31.8408H11.9945C11.6255 32.413 11.1422 32.6741 10.4807 32.6741C9.64142 32.6741 8.89083 32.1142 8.64917 31.3179H14.0165C14.0807 30.9327 14.1059 30.7457 14.1059 30.497ZM8.59871 30.0173C8.84037 29.0841 9.60358 28.4868 10.545 28.4868C11.4864 28.4868 12.2239 29.0718 12.453 30.0173H8.59871ZM41.9397 34.0245H43.6313V24.8301H41.9397V34.0245ZM56.0074 26.9756C55.3076 26.9756 54.7731 27.212 54.1881 27.7969V27.1376H52.6234V34.0303H54.3158V30.7827C54.3158 29.8997 54.3919 28.4933 55.6384 28.4933C56.808 28.4933 56.9358 29.8121 56.9358 30.6581V34.0299H58.6273V30.3346C58.6273 29.364 58.5513 28.904 58.284 28.3565C57.8898 27.5355 56.9614 26.9756 56.0074 26.9756ZM62.8502 28.4937C63.6256 28.4937 64.0707 28.7428 64.4909 29.4392H66.3982C65.877 27.9589 64.5418 26.9756 62.9133 26.9756C60.8527 26.9756 59.199 28.5805 59.199 30.559C59.199 32.5495 60.8653 34.1918 62.9133 34.1918C63.4356 34.1892 63.9517 34.0805 64.4289 33.8728C64.9062 33.665 65.3342 33.3627 65.6858 32.9849C66.0422 32.5993 66.1695 32.3752 66.3982 31.766H64.4909C64.0959 32.3629 63.5878 32.6737 62.9519 32.6737C61.7685 32.6737 60.8913 31.7779 60.8913 30.5833C60.8913 29.3772 61.7306 28.4937 62.8502 28.4937ZM20.5719 31.343L19.3739 27.1379H18.0126L16.8016 31.343L15.3694 27.1379H13.8769L16.2296 34.0303H17.3133L18.6871 29.5642L20.0224 34.0303H21.1597L23.4158 27.1379H22.0171L20.5719 31.343ZM29.6354 26.9829C28.8087 26.9829 28.0352 27.3014 27.5011 27.861V24.8305H25.8091V34.0245H27.3607V33.1414C28.0096 33.8629 28.6963 34.0665 29.5995 34.0665C31.6475 34.0665 33.0288 32.3822 33.0288 30.5035C33.0292 28.513 31.4673 26.9829 29.6354 26.9829ZM29.3969 32.6475C28.8312 32.6475 28.2887 32.4277 27.8887 32.0364C27.4887 31.6452 27.264 31.1145 27.264 30.5612C27.264 30.0078 27.4887 29.4772 27.8887 29.0859C28.2887 28.6946 28.8312 28.4748 29.3969 28.4748C29.9626 28.4748 30.5051 28.6946 30.9051 29.0859C31.3051 29.4772 31.5298 30.0078 31.5298 30.5612C31.5298 31.1145 31.3051 31.6452 30.9051 32.0364C30.5051 32.4277 29.9626 32.6475 29.3969 32.6475ZM39.1175 27.308V27.8667C38.5833 27.3068 37.8103 26.9883 36.9832 26.9883C35.1517 26.9883 33.5894 28.5184 33.5894 30.5093C33.5894 32.3876 34.9711 34.0723 37.0187 34.0723C37.9218 34.0723 38.6086 33.8683 39.2574 33.1468V34.0303H40.8091V27.308H39.1175ZM37.2221 32.6475C36.6564 32.6475 36.1139 32.4277 35.7139 32.0364C35.3139 31.6452 35.0892 31.1145 35.0892 30.5612C35.0892 30.0078 35.3139 29.4772 35.7139 29.0859C36.1139 28.6946 36.6564 28.4748 37.2221 28.4748C37.7878 28.4748 38.3303 28.6946 38.7303 29.0859C39.1303 29.4772 39.355 30.0078 39.355 30.5612C39.355 31.1145 39.1303 31.6452 38.7303 32.0364C38.3303 32.4277 37.7878 32.6475 37.2221 32.6475Z" fill="black"/>
</svg>
