<svg width="54" height="19" viewBox="0 0 54 19" fill="none" xmlns="http://www.w3.org/2000/svg">
<path fill-rule="evenodd" clip-rule="evenodd" d="M7.34157 0.822214C3.90594 4.76903 0.611388 9.66363 0.578389 13.3218C0.565628 14.6983 1.01468 15.9 2.09233 16.8108C3.64338 18.1209 5.3517 18.5831 7.05213 18.5859C9.53698 18.589 12.0043 17.6088 13.9362 16.8527C17.1901 15.58 53.1557 0.302505 53.1557 0.302505C53.5028 0.132784 53.4374 -0.0794582 53.0034 0.0266609C52.8282 0.0695171 13.8491 10.4022 13.8491 10.4022C13.0969 10.6087 12.3284 10.7158 11.5805 10.7199C8.58481 10.7372 5.91918 9.11066 5.94063 5.68294C5.94933 4.34183 6.36917 2.72487 7.34157 0.822214Z" fill="#211C1D"/>
</svg>
