<svg width="55" height="26" viewBox="0 0 55 26" fill="none" xmlns="http://www.w3.org/2000/svg">
<g clip-path="url(#clip0_24_1603)">
<path d="M14.0151 12.997C14.0151 9.56264 14.8496 6.7342 16.7266 4.50545V3.07423C16.714 2.85551 16.7711 2.63853 16.8892 2.45599C17.0503 2.27938 17.2609 2.15841 17.4918 2.10978V1.68011H12.7377V2.10978C12.9687 2.15841 13.1792 2.27938 13.3403 2.45599C13.4559 2.63969 13.5127 2.8558 13.503 3.07423V12.1376C13.5183 12.9155 13.4679 13.6932 13.3523 14.4622C13.2674 14.9194 13.0762 15.3489 12.795 15.7141C12.0388 16.6198 10.7403 17.0742 8.90557 17.0742C7.07083 17.0742 5.78139 16.6198 5.02821 15.7141C4.73246 15.3552 4.53217 14.9239 4.44676 14.4622C4.32482 13.694 4.27438 12.9156 4.29612 12.1376V3.08042C4.28625 2.8602 4.34769 2.64282 4.47086 2.46218C4.63066 2.2839 4.84175 2.1626 5.0734 2.11596V1.68629H0V2.11596C0.230931 2.16459 0.441461 2.28557 0.602542 2.46218C0.720639 2.64472 0.777737 2.86169 0.765231 3.08042V13.2659C0.741888 14.3851 0.894479 15.5009 1.21714 16.5704C1.50761 17.4793 2.08818 18.2612 2.86509 18.7898C4.23587 19.7172 6.17906 20.1963 8.76397 20.1963C11.5758 20.1963 13.6275 19.6595 14.9189 18.5858C14.235 16.9413 14.0151 15.0804 14.0151 13.0217M54.3131 11.8903C54.4871 11.709 54.7092 11.5843 54.9518 11.5317V11.102H46.5463C46.3296 11.1145 46.1157 11.0465 45.9438 10.9104C45.7706 10.7152 45.6537 10.4744 45.6064 10.2149H45.1876V14.6291H45.6064C45.6522 14.37 45.7693 14.1298 45.9438 13.9367C46.1157 13.8006 46.3296 13.7326 46.5463 13.745H50.9479V16.3107C50.9479 16.3107 50.1586 17.9088 45.1063 18.1654C43.3898 18.2958 41.6774 17.8628 40.2167 16.9289C40.2108 16.9689 40.2108 17.0095 40.2167 17.0495V20.5673C40.2167 20.5673 41.8315 21.3432 45.2087 21.3432C48.7873 21.3793 52.2615 20.1071 55.009 17.7543V17.4081C54.7586 17.3578 54.5281 17.2331 54.3462 17.0495C54.2135 16.8642 54.1514 16.6356 54.1715 16.4065V12.5425C54.1406 12.3146 54.1991 12.0833 54.3342 11.8996M40.7559 6.19633C41.961 5.09896 43.5186 4.53946 45.3654 4.53946C46.3444 4.55282 47.3172 4.7015 48.2576 4.9815C49.0927 5.191 49.8839 5.55445 50.5924 6.05414C50.7758 6.18033 50.9334 6.34202 51.0564 6.53018C51.1377 6.7341 51.1776 6.95287 51.1739 7.17315L51.5444 7.37717L53.6232 2.87021L53.2647 2.66619C53.0899 2.83734 52.8659 2.9458 52.626 2.97531C52.1867 2.92654 51.7588 2.80109 51.3607 2.60437C50.3699 2.18782 49.3484 1.85292 48.3058 1.60283C47.36 1.41655 46.4005 1.31314 45.4377 1.29371C41.6175 1.10206 39.596 2.33235 39.596 2.33235L36.6827 8.77129L35.4776 8.36635C35.4776 8.36635 35.4776 7.74811 35.3843 7.72338C35.1071 7.97377 34.8721 9.2968 34.7817 11.0279C34.7817 11.4081 34.839 12.4838 34.839 12.4838H38.6711C38.6711 12.4838 38.5777 11.6245 38.5777 11.0897C38.5755 10.1611 38.7689 9.24306 39.1449 8.39843C39.5209 7.5538 40.0704 6.80259 40.7559 6.19633Z" fill="#0E0000"/>
<path d="M35.4861 16.5402H29.8433C29.7032 16.5282 29.5622 16.5454 29.4287 16.5905C29.2951 16.6356 29.1718 16.7079 29.066 16.8029C28.8436 17.0665 28.6948 17.387 28.6352 17.7303H28.117V11.857H28.6503C28.7093 12.2005 28.8582 12.521 29.0811 12.7844C29.2992 12.9671 29.5776 13.0568 29.8584 13.0347H40.68V13.6159C40.3633 13.6896 40.0737 13.8548 39.8455 14.0919C39.6637 14.3424 39.5769 14.6523 39.6015 14.9636V20.1074C39.5812 20.4164 39.6629 20.7235 39.8335 20.9791C40.0646 21.2187 40.3588 21.3841 40.68 21.4551V21.8972C36.3498 24.6277 32.1541 25.991 28.0929 25.9868C24.3993 25.9868 21.4047 25.0193 19.0699 23.0997C16.1355 20.6926 14.6643 17.3253 14.6562 12.9976C14.6562 8.9791 15.9618 5.77868 18.5728 3.39641C21.0352 1.1419 24.321 0.008463 28.4303 -0.00390176C29.6715 -0.00479267 30.9093 0.126772 32.1239 0.388676C33.4653 0.714269 34.7759 1.16115 36.0404 1.72407C36.589 2.00249 37.1765 2.19127 37.7818 2.28358C38.0947 2.24608 38.3837 2.09342 38.5952 1.85391L39.0592 2.12902L36.4231 8.09193L35.9109 7.88791C35.8819 7.56369 35.7908 7.24854 35.6428 6.96055C35.4848 6.70788 35.2801 6.48945 35.0402 6.31759C34.1431 5.64371 33.1256 5.15741 32.0456 4.88636C30.8371 4.50789 29.5823 4.30702 28.3189 4.28976C25.9268 4.28976 23.9655 5.01619 22.3748 6.49687C20.6094 8.16611 19.7146 10.3609 19.7146 13.0935C19.7146 15.7416 20.5772 17.8807 22.3025 19.5108C23.8812 21.0131 25.972 21.7519 28.5599 21.7519C29.8164 21.7494 31.0679 21.5895 32.2866 21.2759C33.4008 20.9854 34.4712 20.5403 35.468 19.9528V16.5525L35.4861 16.5402Z" fill="#0E0000"/>
</g>
<defs>
<clipPath id="clip0_24_1603">
<rect width="55" height="26" fill="white"/>
</clipPath>
</defs>
</svg>
